{"title":"Parched (2016) 1080p WebRip x264 AC3 5.1 ESub -DDR","uid":15620057,"size":2116397171,"categoryP":"video","categoryS":"hd___movies","magnet":"?xt=urn:btih:a560c5084bf78822a041b213f645c35fb085d531&amp;dn=Parched+%282016%29+1080p+WebRip+x264+AC3+5.1+ESub+-DDR&amp;tr=udp%3A%2F%2Ftracker.leechers-paradise.org%3A6969&amp;tr=udp%3A%2F%2Fzer0day.ch%3A1337&amp;tr=udp%3A%2F%2Fopen.demonii.com%3A1337&amp;tr=udp%3A%2F%2Ftracker.coppersurfer.tk%3A6969&amp;tr=udp%3A%2F%2Fexodus.desync.com%3A6969","seeders":81,"leechers":130,"uploader":"SaM","files":3,"time":1471872172,"description":"\n** PARCHED **\r\n\r\n** 2016**\r\n\r\n** 1080p / WEBRip / x264 / AC3 5.1 **\r\n\r\n** English Hardcoded Subtitle(s) **\r\n\r\n** WARNING: Not recommended for under-aged children !!!\r\nContains explicit harsh language and sex sceens.\r\n**\r\n\r\n\r\n[ SCREENS ]\r\n \nhttp://extraimago.com/image/w1iZ \nhttp://extraimago.com/image/w1iK \nhttp://extraimago.com/image/w1iJ \nhttp://extraimago.com/image/w1i0 \nhttp://extraimago.com/image/w1iz \nhttp://extraimago.com/image/w1iU \nhttp://extraimago.com/image/w1iM \nhttp://extraimago.com/image/w1i9 \nhttp://extraimago.com/image/w1i3 \nhttp://extraimago.com/image/w1ib \nhttp://extraimago.com/image/w1ih \nhttp://extraimago.com/image/w1id \nhttp://extraimago.com/image/w1iI \nhttp://extraimago.com/image/w1il \nhttp://extraimago.com/image/w1ii \nhttp://extraimago.com/image/w1im\r\n\r\n[ Info ]\r\nSource : Untouched WEBHD @ M2TV\r\n\r\nFormat : Matroska\r\nFile size : 1.95 GiB\r\nDuration : 1h 56mn\r\nOverall bit rate : 2 386 Kbps\r\n\r\nVideo\r\nFormat : AVC\r\nFormat/Info : Advanced Video Codec\r\nFormat profile :   \r\nFormat settings, CABAC : Yes\r\nFormat settings, ReFrames : 5 frames\r\nCodec ID : V_MPEG4/ISO/AVC\r\nDuration : 1h 56mn\r\nBit rate : 2 000 Kbps\r\nWidth : 1 920 pixels\r\nHeight : 800 pixels\r\nDisplay aspect ratio : 2.40:1\r\nFrame rate mode : Constant\r\nFrame rate : 23.976 (24000/1001) fps\r\ncolor space : YUV\r\nChroma subsampling : 4:2:0\r\nBit depth : 8 bits\r\nScan type : Progressive\r\nBits/(Pixel*Frame) : 0.054\r\nStream size : 1.63 GiB (84%)\r\nWriting library : x264 core 148 r2692 64f4e24\r\n\r\nAudio\r\nFormat : AC-3\r\nFormat/Info : Audio Coding 3\r\nMode extension : CM (complete main)\r\nFormat settings, Endianness : Big\r\nCodec ID : A_AC3\r\nDuration : 1h 56mn\r\nBit rate mode : Constant\r\nBit rate : 384 Kbps\r\nChannel(s) : 6 channels\r\nChannel positions : Front: L C R, Side: L R, LFE\r\nSampling rate : 48.0 KHz\r\nFrame rate : 31.250 fps (1536 spf)\r\nCompression mode : Lossy\r\nStream size : 321 MiB (16%)\r\nLanguage : Hindi\r\nDefault : Yes\r\nForced : No\r\n\r\n\r\nChapters = None on source","torrent":{"xt":"urn:btih:a560c5084bf78822a041b213f645c35fb085d531","amp;dn":"Parched+%282016%29+1080p+WebRip+x264+AC3+5.1+ESub+-DDR","amp;tr":["udp%3A%2F%2Ftracker.leechers-paradise.org%3A6969","udp%3A%2F%2Fzer0day.ch%3A1337","udp%3A%2F%2Fopen.demonii.com%3A1337","udp%3A%2F%2Ftracker.coppersurfer.tk%3A6969","udp%3A%2F%2Fexodus.desync.com%3A6969"],"infoHash":"a560c5084bf78822a041b213f645c35fb085d531","infoHashBuffer":{"type":"Buffer","data":[165,96,197,8,75,247,136,34,160,65,178,19,246,69,195,95,176,133,213,49]},"announce":[],"urlList":[]}}